<?xml version="1.0" encoding="utf-8"?>
<!-- Generator: Adobe Illustrator 24.0.1, SVG Export Plug-In . SVG Version: 6.00 Build 0)  -->
<svg version="1.1" id="Layer_1" xmlns="http://www.w3.org/2000/svg" xmlns:xlink="http://www.w3.org/1999/xlink" x="0px" y="0px"
	 viewBox="0 0 2500 1000" style="enable-background:new 0 0 2500 1000;" xml:space="preserve">
<style type="text/css">
	.st0{fill:#2F612F;}
	.st1{font-family:'GillSans';}
	.st2{font-size:332.5214px;}
	.st3{font-size:100px;}
	.st4{letter-spacing:160;}
</style>
<text transform="matrix(1 0 0 1 215.292 655.1777)" class="st0 st1 st2">THE BEL   VED</text>
<path class="st0" d="M1557.53,398c0,0-70.75,35-82.34,92.67c0,0-4.25,25,17.01,56.67c21.26,31.67,0.77,72-18.94,95
	c0,0,22.04,34.67,84.28,50.67c0,0,34.41-5,84.66-46.33c0,0-43.3-53.67-20.1-101c0,0,22.81-36,16.24-60.33
	C1631.75,461,1608.94,418,1557.53,398z"/>
<text transform="matrix(1 0 0 1 319.3958 352.4166)" class="st0 st1 st3 st4">LOVERS OF</text>
</svg>
